<?xml version="1.0" standalone="no"?><!DOCTYPE svg PUBLIC "-//W3C//DTD SVG 1.1//EN" "http://www.w3.org/Graphics/SVG/1.1/DTD/svg11.dtd"><svg t="1600065260037" class="icon" viewBox="0 0 1106 1024" version="1.1" xmlns="http://www.w3.org/2000/svg" p-id="3883" xmlns:xlink="http://www.w3.org/1999/xlink" width="216.015625" height="200"><defs><style type="text/css"></style></defs><path d="M979.879958 215.301361a300.651163 300.651163 0 0 0-213.263341-88.338898 301.602239 301.602239 0 0 0-426.539033 0 300.663514 300.663514 0 0 0-213.263341 88.338898c-117.785197 117.785197-117.785197 308.790891 0 426.539033s308.790891 117.785197 426.539033 0c117.785197 117.785197 308.790891 117.785197 426.539033 0s117.772846-308.753836-0.012351-426.539033z" fill="#EEE82C" p-id="3884"></path><path d="M766.604265 768.629933a339.361189 339.361189 0 0 1-213.263341-74.949725C419.86915 801.213548 223.391682 792.975007 99.504777 669.137508c-132.668918-132.656567-132.668918-348.489048 0-481.145614A337.644311 337.644311 0 0 1 324.230435 88.697095a340.213452 340.213452 0 0 1 458.245682 0 337.644311 337.644311 0 0 1 224.725659 99.294799c132.594808 132.668918 132.594808 348.489048-0.024704 481.145614a339.138859 339.138859 0 0 1-240.572807 99.492425zM553.340924 603.216829a38.487697 38.487697 0 0 1 27.297115 11.314098 262.991026 262.991026 0 0 0 371.932452 0c102.518576-102.518576 102.518576-269.376821 0-371.932452a261.187687 261.187687 0 0 0-185.966226-77.024799 38.635916 38.635916 0 0 1-27.297115-11.314099 262.991026 262.991026 0 0 0-371.932452 0 38.635916 38.635916 0 0 1-27.297114 11.314099 261.274148 261.274148 0 0 0-185.941523 77.037151c-102.518576 102.518576-102.518576 269.376821 0 371.932452a262.991026 262.991026 0 0 0 371.932452 0 38.487697 38.487697 0 0 1 27.272411-11.32645z" fill="#77BD5B" p-id="3885"></path><path d="M616.371321 1023.950593H490.310528a141.74737 141.74737 0 0 1-141.537393-138.078934l-25.271446-150.319406a38.623565 38.623565 0 0 1 35.350381-44.910547 262.867509 262.867509 0 0 0 167.179388-76.098427 38.598861 38.598861 0 0 1 54.606581 0 262.867509 262.867509 0 0 0 167.179388 76.098427 38.623565 38.623565 0 0 1 35.350382 44.910547l-25.259095 150.319406A141.74737 141.74737 0 0 1 616.371321 1023.950593z m-210.101322-261.854675l19.157387 113.943839a38.895301 38.895301 0 0 1 0.53112 6.398147 64.426131 64.426131 0 0 0 64.364373 64.364373h126.048442a64.426131 64.426131 0 0 0 64.364373-64.364373 38.895301 38.895301 0 0 1 0.531121-6.398147l19.145035-113.943839a340.065232 340.065232 0 0 1-147.070926-68.428061A340.065232 340.065232 0 0 1 406.269999 762.095918z" fill="#77BD5B" p-id="3886"></path></svg>